<svg width="16" height="13" viewBox="0 0 16 13" fill="none" xmlns="http://www.w3.org/2000/svg">
<path d="M8 0C9.65463 0 11.2234 0.574061 12.5893 1.63685C13.9551 2.69188 15.118 4.23564 15.9532 6.16727C16.0156 6.31467 16.0156 6.48533 15.9532 6.62497C14.2829 10.4882 11.3093 12.8 8 12.8H7.9922C4.69073 12.8 1.71707 10.4882 0.0468293 6.62497C-0.0156098 6.48533 -0.0156098 6.31467 0.0468293 6.16727C1.71707 2.304 4.69073 0 7.9922 0H8ZM8 3.29697C6.27512 3.29697 4.87805 4.68558 4.87805 6.4C4.87805 8.10667 6.27512 9.49527 8 9.49527C9.71707 9.49527 11.1141 8.10667 11.1141 6.4C11.1141 4.68558 9.71707 3.29697 8 3.29697ZM8.00094 4.4589C9.07021 4.4589 9.94435 5.32775 9.94435 6.39829C9.94435 7.46108 9.07021 8.32993 8.00094 8.32993C6.92386 8.32993 6.04972 7.46108 6.04972 6.39829C6.04972 6.26641 6.06533 6.14229 6.08874 6.01817H6.12777C6.99411 6.01817 7.69655 5.33551 7.72777 4.48217C7.81362 4.46666 7.90728 4.4589 8.00094 4.4589Z" fill="black"/>
</svg>
